<svg class="svg-icon" style="width: 1em;height: 1em;vertical-align: middle;fill: currentColor;overflow: hidden;" viewBox="0 0 1024 1024" version="1.1" xmlns="http://www.w3.org/2000/svg"><path d="M1001.174 769.584H22.826C10.22 769.584 0 759.364 0 746.758V79.77c0-12.606 10.22-22.826 22.826-22.826h978.346c12.606 0 22.826 10.22 22.826 22.826v666.986c0.002 12.608-10.218 22.828-22.824 22.828z" fill="#FFAF40" /><path d="M1024 79.764v667c0 12.6-10.22 22.82-22.82 22.82H22.82c-12.6 0-22.82-10.22-22.82-22.82v-173.86c93.14 86.32 217.82 139.08 354.82 139.08 288.36 0 522.14-233.76 522.14-522.14 0-45.92-5.92-90.46-17.08-132.9h141.3c12.6 0 22.82 10.22 22.82 22.82z" fill="#FF993A" /><path d="M1024 430.342v316.42c0 12.6-10.22 22.82-22.82 22.82H562.8c201.34-34.958 370.56-163.518 461.2-339.24z" fill="#F97C15" /><path d="M921.288 253.716v319.106c0 9.506-5.856 18.11-14.79 21.354-26.842 9.75-48.144 31.052-57.904 57.894-3.246 8.93-11.85 14.782-21.352 14.782H196.758c-9.502 0-18.104-5.852-21.352-14.782-9.76-26.844-31.062-48.144-57.904-57.894-8.934-3.246-14.79-11.848-14.79-21.354V253.716c0-9.506 5.858-18.112 14.794-21.356 26.856-9.75 48.158-31.052 57.908-57.908 3.244-8.936 11.848-14.794 21.356-14.794h630.462c9.506 0 18.112 5.858 21.356 14.794 9.75 26.856 31.052 48.158 57.908 57.908 8.934 3.244 14.792 11.85 14.792 21.356z" fill="#F1EEE0" /><path d="M921.28 253.724v319.1c0 9.5-5.84 18.1-14.78 21.36-26.84 9.74-48.14 31.04-57.9 57.88-3.26 8.94-11.86 14.78-21.36 14.78H487.7c151.58-57.28 259.36-203.74 259.36-375.36 0-46.18-7.8-90.54-22.16-131.82h102.34c9.5 0 18.1 5.86 21.34 14.8 9.76 26.84 31.06 48.14 57.92 57.9 8.92 3.24 14.78 11.84 14.78 21.36z" fill="#E8E4D8" /><path d="M921.28 253.724v319.1c0 9.5-5.84 18.1-14.78 21.36-26.84 9.74-48.14 31.04-57.9 57.88-3.26 8.94-11.86 14.78-21.36 14.78H613.62c151.58-57.28 259.36-203.74 259.36-375.36 0-31.5-3.62-62.16-10.5-91.54 11.16 14.64 26.4 26.02 44.02 32.42 8.92 3.24 14.78 11.84 14.78 21.36z" fill="#D8D4C9" /><path d="M697.276 591.946H326.724c-14.322 0-25.932-11.61-25.932-25.932s11.61-25.932 25.932-25.932h370.552c14.322 0 25.932 11.61 25.932 25.932 0 14.32-11.61 25.932-25.932 25.932z" fill="#8F8B81" /><path d="M583.534 540.08h-198.498c-14.322 0-25.932 11.61-25.932 25.932s11.61 25.932 25.932 25.932h198.498c14.322 0 25.932-11.61 25.932-25.932 0.002-14.322-11.61-25.932-25.932-25.932z" fill="#B5B1A4" /><path d="M485.388 540.08h-64.924c-14.322 0-25.932 11.61-25.932 25.932s11.61 25.932 25.932 25.932h64.924c14.322 0 25.932-11.61 25.932-25.932s-11.61-25.932-25.932-25.932z" fill="#D8D4C9" /><path d="M697.276 505.03H326.724c-14.322 0-25.932-11.61-25.932-25.932s11.61-25.932 25.932-25.932h370.552c14.322 0 25.932 11.61 25.932 25.932s-11.61 25.932-25.932 25.932z" fill="#8F8B81" /><path d="M583.534 453.166h-198.498c-14.322 0-25.932 11.61-25.932 25.932s11.61 25.932 25.932 25.932h198.498c14.322 0 25.932-11.61 25.932-25.932 0.002-14.322-11.61-25.932-25.932-25.932z" fill="#B5B1A4" /><path d="M485.388 453.166h-64.924c-14.322 0-25.932 11.61-25.932 25.932s11.61 25.932 25.932 25.932h64.924c14.322 0 25.932-11.61 25.932-25.932s-11.61-25.932-25.932-25.932z" fill="#D8D4C9" /><path d="M894.68 712.444v237.04c0 12.82-13.28 21.3-24.9 15.94l-65.52-30.18a17.586 17.586 0 0 0-14.68 0l-65.52 30.18c-11.62 5.36-24.9-3.12-24.9-15.94v-237.04z" fill="#FE255F" /><path d="M894.68 712.444v53.42c-27.7 19.16-61.3 30.36-97.5 30.36-36.44 0-70.24-11.34-98.02-30.72v-53.06z" fill="#E01152" /><path d="M894.68 712.444v237.04c0 12.82-13.28 21.3-24.9 15.94l-65.52-30.18a17.586 17.586 0 0 0-14.68 0l-65.52 30.18c-11.62 5.36-24.9-3.12-24.9-15.94v-40.4c86.92-13.94 153.32-89.28 153.32-180.12 0-5.56-0.24-11.08-0.76-16.52z" fill="#E01152" /><path d="M894.68 802.464v147.02c0 12.82-13.28 21.3-24.9 15.94l-61.8-28.46c46.9-28.44 79.98-77.44 86.7-134.5z" fill="#C40047" /><path d="M797.174 592.55m-171.772 0a171.772 171.772 0 1 0 343.544 0 171.772 171.772 0 1 0-343.544 0Z" fill="#FFE059" /><path d="M797.174 592.55m-111.206 0a111.206 111.206 0 1 0 222.412 0 111.206 111.206 0 1 0-222.412 0Z" fill="#7CBAF7" /><path d="M908.38 592.544c0 61.42-49.78 111.22-111.2 111.22-52.46 0-96.44-36.34-108.16-85.2 16.78 23.52 44.3 38.86 75.38 38.86 51.14 0 92.58-41.46 92.58-92.58 0-36.58-21.22-68.2-52.02-83.22 57.78 3.98 103.42 52.14 103.42 110.92z" fill="#48ACFF" /><path d="M98.574 666.852m-37.63 0a37.63 37.63 0 1 0 75.26 0 37.63 37.63 0 1 0-75.26 0Z" fill="#FFE059" /><path d="M85.664 657.416m-21.554 0a21.554 21.554 0 1 0 43.108 0 21.554 21.554 0 1 0-43.108 0Z" fill="#FFF370" /><path d="M98.574 159.66m-37.63 0a37.63 37.63 0 1 0 75.26 0 37.63 37.63 0 1 0-75.26 0Z" fill="#FFE059" /><path d="M85.664 150.224m-21.554 0a21.554 21.554 0 1 0 43.108 0 21.554 21.554 0 1 0-43.108 0Z" fill="#FFF370" /><path d="M921.288 159.66m-37.63 0a37.63 37.63 0 1 0 75.26 0 37.63 37.63 0 1 0-75.26 0Z" fill="#FFE059" /><path d="M908.378 150.224m-21.554 0a21.554 21.554 0 1 0 43.108 0 21.554 21.554 0 1 0-43.108 0Z" fill="#FFF370" /><path d="M757.276 377.896H266.724c-14.322 0-25.932-11.61-25.932-25.932s11.61-25.932 25.932-25.932h490.552c14.322 0 25.932 11.61 25.932 25.932s-11.61 25.932-25.932 25.932z" fill="#48ACFF" /><path d="M661.534 326.03H343.036c-14.322 0-25.932 11.61-25.932 25.932s11.61 25.932 25.932 25.932h318.498c14.322 0 25.932-11.61 25.932-25.932 0.002-14.322-11.61-25.932-25.932-25.932z" fill="#7CBAF7" /><path d="M561.596 326.03h-124.924c-14.322 0-25.932 11.61-25.932 25.932s11.61 25.932 25.932 25.932h124.924c14.322 0 25.932-11.61 25.932-25.932s-11.61-25.932-25.932-25.932z" fill="#A9CFFC" /><path d="M698.244 56.944h-413.36c-28.366 0-51.36 22.994-51.36 51.36s22.994 51.36 51.36 51.36h413.36c28.366 0 51.36-22.994 51.36-51.36s-22.994-51.36-51.36-51.36z" fill="#FFC751" /><path d="M540.996 56.944h-143.722c-28.366 0-51.36 22.994-51.36 51.36s22.994 51.36 51.36 51.36h143.722c28.366 0 51.36-22.994 51.36-51.36s-22.994-51.36-51.36-51.36z" fill="#FFE059" /><path d="M102.72 481.692v-140.824c0-28.366-22.994-51.36-51.36-51.36S0 312.502 0 340.868v140.824c0 28.366 22.994 51.36 51.36 51.36s51.36-22.994 51.36-51.36z" fill="#FFC751" /><path d="M720.374 727.334c4.808-5.492 9.638-10.966 14.494-16.414 7.608-8.536 6.156-21.73-3.09-28.458-27.766-20.21-45.82-52.946-45.82-89.918 0-49.498 32.372-91.432 77.1-105.834 12.386-3.988 20.652-15.686 20.652-28.696 0-20.504-19.984-35.17-39.492-28.858-68.954 22.314-118.818 87.01-118.818 163.388 0 56.324 27.12 106.27 69 137.574 8.03 6.002 19.37 4.76 25.974-2.784z" fill="#FFF370" /><path d="M689.528 564.576c5.688-21.934 17.906-41.234 34.46-55.71 10.844-9.482 13.016-25.528 5.548-37.844l-0.314-0.518c-9.704-15.99-31.5-19.188-45.54-6.828-25.282 22.256-43.964 51.826-52.728 85.408-4.962 19.016 9.348 37.608 29.002 37.608h0.656c13.524-0.002 25.52-9.024 28.916-22.116z" fill="#FFF7C7" /><path d="M904.82 620.524c-5.688 21.934-17.906 41.234-34.46 55.71-10.844 9.482-13.016 25.528-5.548 37.844l0.314 0.518c9.704 15.99 31.5 19.188 45.54 6.828 25.282-22.256 43.964-51.826 52.728-85.408 4.962-19.016-9.348-37.608-29-37.608h-0.656c-13.526 0.002-25.524 9.024-28.918 22.116z" fill="#FFF370" /><path d="M512 244.042m-37.63 0a37.63 37.63 0 1 0 75.26 0 37.63 37.63 0 1 0-75.26 0Z" fill="#FFE059" /><path d="M499.092 234.604m-21.554 0a21.554 21.554 0 1 0 43.108 0 21.554 21.554 0 1 0-43.108 0Z" fill="#FFF370" /><path d="M417.574 250.338m-31.334 0a31.334 31.334 0 1 0 62.668 0 31.334 31.334 0 1 0-62.668 0Z" fill="#FFE059" /><path d="M406.824 242.48m-17.948 0a17.948 17.948 0 1 0 35.896 0 17.948 17.948 0 1 0-35.896 0Z" fill="#FFF370" /><path d="M606.426 250.338m-31.334 0a31.334 31.334 0 1 0 62.668 0 31.334 31.334 0 1 0-62.668 0Z" fill="#FFE059" /><path d="M595.678 242.48m-17.948 0a17.948 17.948 0 1 0 35.896 0 17.948 17.948 0 1 0-35.896 0Z" fill="#FFF370" /><path d="M727.482 884.206c-15.642 0-28.322-12.68-28.322-28.322v-32.268c0-15.642 12.68-28.322 28.322-28.322s28.322 12.68 28.322 28.322v32.268c0.002 15.642-12.68 28.322-28.322 28.322z" fill="#FC709B" /></svg>