<svg class="svg-icon" style="width: 1em;height: 1em;vertical-align: middle;fill: currentColor;overflow: hidden;" viewBox="0 0 1024 1024" version="1.1" xmlns="http://www.w3.org/2000/svg"><path d="M511.999 512.002m-511.998 0a511.998 511.998 0 1 0 1023.996 0 511.998 511.998 0 1 0-1023.996 0Z" fill="#323232" /><path d="M511.999 512.002m-407.00441 0a407.00441 407.00441 0 1 0 814.00882 0 407.00441 407.00441 0 1 0-814.00882 0Z" fill="#494A4A" /><path d="M885.629541 317.154761c-1.733993-8.809966-25.853899-13.137949-28.625889-21.677915-2.769989-8.537967 14.897942-26.591896 10.41196-34.363866-4.485982-7.76997-28.959887-1.493994-34.965864-8.163968-6.007977-6.671974 2.803989-30.353881-4.457982-35.625861-7.261972-5.275979-27.067894 10.409959-35.269863 6.761974-8.195968-3.647986-9.789962-28.867887-18.567927-30.73388-8.775966-1.869993-20.48192 20.52392-29.459885 20.52392s-20.683919-22.391913-29.461885-20.52392c-8.779966 1.867993-10.371959 27.085894-18.569927 30.73388-8.195968 3.647986-28.003891-12.037953-35.265863-6.761974-7.261972 5.273979 1.543994 28.955887-4.459982 35.625861-6.003977 6.669974-30.477881 0.393998-34.967864 8.163968-4.481982 7.77197 13.185948 25.825899 10.41596 34.363866-2.773989 8.539967-26.893895 12.86795-28.625888 21.677915-0.739997 3.769985 3.291987 7.65797 8.207968 11.565955H130.116492c-11.043957 0-19.999922 8.953965-19.999922 19.999922v445.212261c0 11.045957 8.955965 19.999922 19.999922 19.999922h689.669306c11.043957 0 19.999922-8.953965 19.999922-19.999922V428.772325c4.443983 0.459998 8.235968 0.217999 10.21596-1.975992 6.005977-6.671974-7.529971-28.007891-3.039988-35.77986 4.487982-7.77997 29.729884-6.715974 32.499873-15.255941 2.771989-8.531967-18.261929-22.523912-17.321933-31.447877 0.935996-8.923965 25.217901-18.345928 23.489909-27.157894z" fill="#323232" /><path d="M876.833575 731.265143c0 11.045957-8.955965 19.999922-19.999922 19.999922H167.164347c-11.045957 0-19.999922-8.953965-19.999922-19.999922V286.052883c0-11.045957 8.953965-19.999922 19.999922-19.999922h689.669306c11.043957 0 19.999922 8.953965 19.999922 19.999922v445.21226z" fill="#E8E9EC" /><path d="M173.752321 369.170558h676.491358v126.347506H173.752321zM173.752321 511.732001h338.430678v11.089957H173.752321zM173.752321 538.469897h338.430678v11.089956H173.752321zM173.752321 565.209792h676.491358v11.083957H173.752321zM173.752321 591.945688h676.491358v11.087956H173.752321zM173.752321 618.681583h676.491358v11.089957H173.752321zM173.752321 645.419479h676.491358v11.085957H173.752321zM173.752321 672.153374h676.491358v11.091957H173.752321zM856.833653 266.052961H167.164347c-11.045957 0-19.999922 8.953965-19.999922 19.999922v56.971777h729.66915v-56.971777c0-11.045957-8.955965-19.999922-19.999922-19.999922z" fill="#CDCCCA" /><path d="M169.452338 304.54281a17.669931 17.669931 0 1 1 35.331862 0 17.669931 17.669931 0 0 1-35.331862 0z" fill="#E65439" /><path d="M218.834145 304.54281a17.667931 17.667931 0 1 1 35.335862 0c0 9.751962-7.911969 17.667931-17.667931 17.667931a17.671931 17.671931 0 0 1-17.667931-17.667931z" fill="#3AB49C" /><path d="M268.213952 304.54281a17.667931 17.667931 0 0 1 17.669931-17.669931 17.665931 17.665931 0 0 1 17.665931 17.669931c0 9.751962-7.907969 17.667931-17.665931 17.667931a17.673931 17.673931 0 0 1-17.669931-17.667931z" fill="#EDC849" /><path d="M876.833575 344.358655v-58.303772c0-11.045957-8.955965-19.999922-19.999922-19.999922H637.136511c-4.743981 2.53999-8.659966 5.24598-9.321963 8.605966-1.727993 8.811966 22.551912 18.233929 23.489908 27.155894 0.935996 8.925965-20.095922 22.91791-17.325932 31.449877 2.771989 8.539967 28.015891 7.475971 32.503873 15.253941 4.489982 7.77397-9.041965 29.109886-3.041989 35.78186 5.07998 5.635978 22.009914-1.485994 31.521877-0.643998v159.339378l73.789712-55.077785 73.791712 55.077785v-159.339378c9.511963-0.841997 26.443897 6.281975 31.519877 0.643998 6.005977-6.671974-7.529971-28.007891-3.039988-35.78186 1.023996-1.779993 3.137988-3.091988 5.809977-4.161984z" fill="#CDCCCA" /><path d="M707.948235 522.821958l73.791711-55.073785 73.791712 55.073785v-259.798985h-147.583423z" fill="#F79D22" /><path d="M707.948235 391.538471c1.651994 10.24996 2.155992 22.575912 8.055968 25.195901 9.353963 4.163984 27.719892-18.03193 37.731853-15.901938 10.015961 2.125992 17.765931 29.883883 28.00389 29.883884s17.98793-27.759892 28.001891-29.883884c10.013961-2.127992 28.377889 20.065922 37.733853 15.901938 5.899977-2.61999 6.403975-14.945942 8.053968-25.195901v-128.515498h-147.583423v128.515498z" fill="#DE8729" /><path d="M781.739946 151.207409c8.975965 0 20.683919-22.391913 29.459885-20.519919 8.781966 1.863993 10.373959 27.081894 18.569928 30.729879 8.199968 3.647986 28.005891-12.037953 35.267862-6.761973 7.263972 5.277979-1.547994 28.955887 4.457983 35.625861 6.005977 6.669974 30.479881 0.391998 34.965863 8.163968s-13.181949 25.825899-10.411959 34.361866c2.773989 8.541967 26.893895 12.87395 28.625888 21.679915 1.729993 8.811966-22.553912 18.233929-23.487908 27.161894-0.941996 8.919965 20.093922 22.911911 17.323932 31.443877-2.771989 8.539967-28.013891 7.475971-32.501873 15.25594-4.489982 7.77597 9.043965 29.107886 3.039988 35.779861-6.003977 6.671974-28.633888-4.561982-35.89986 0.715997-7.257972 5.275979-3.571986 30.271882-11.771954 33.915867-8.201968 3.653986-24.303905-15.809938-33.087871-13.947945-8.779966 1.867993-15.573939 26.205898-24.549904 26.205897-8.977965 0-15.771938-24.337905-24.553904-26.205897-8.779966-1.863993-24.881903 17.601931-33.081871 13.947945-8.201968-3.643986-4.515982-28.639888-11.775954-33.915867-7.263972-5.279979-29.891883 5.955977-35.899859-0.715997-6.003977-6.671974 7.531971-28.003891 3.041988-35.779861-4.487982-7.77997-29.731884-6.715974-32.503873-15.25594-2.769989-8.531967 18.259929-22.523912 17.325932-31.443877-0.937996-8.927965-25.217901-18.349928-23.487908-27.161894 1.729993-8.805966 25.851899-13.137949 28.625888-21.679915 2.769989-8.535967-14.897942-26.589896-10.415959-34.361866 4.489982-7.77197 28.963887-1.493994 34.969863-8.163968 6.003977-6.671974-2.803989-30.349881 4.457983-35.625861 7.261972-5.275979 27.067894 10.409959 35.267862 6.761973 8.197968-3.647986 9.789962-28.867887 18.569927-30.729879 8.775966-1.873993 20.48192 20.51992 29.459885 20.519919z" fill="#F79D22" /><path d="M691.496299 270.794942c0-49.843805 40.399842-90.245647 90.243647-90.245647s90.241647 40.401842 90.241648 90.245647c0 49.835805-40.397842 90.247647-90.241648 90.247648s-90.243647-40.411842-90.243647-90.247648z" fill="#EDC849" /><path d="M781.739946 270.794942m-71.339721 0a71.339721 71.339721 0 1 0 142.679443 0 71.339721 71.339721 0 1 0-142.679443 0Z" fill="#DDAE2A" /></svg>